<svg width="342" height="49" viewBox="0 0 342 49" fill="none" xmlns="http://www.w3.org/2000/svg">
<g filter="url(#filter0_i_1_2)">
<path d="M17.5125 48.024C13.8432 48.024 10.7072 47.0853 8.1045 45.208C5.50183 43.288 3.51783 40.5573 2.1525 37.016C0.787167 33.432 0.1045 29.208 0.1045 24.344C0.1045 19.48 0.787167 15.256 2.1525 11.672C3.51783 8.088 5.50183 5.336 8.1045 3.416C10.7072 1.496 13.8432 0.535999 17.5125 0.535999C21.1818 0.535999 24.3178 1.496 26.9205 3.416C29.5232 5.336 31.5072 8.088 32.8725 11.672C34.2378 15.256 34.9205 19.48 34.9205 24.344C34.9205 29.208 34.2378 33.432 32.8725 37.016C31.5072 40.5573 29.5232 43.288 26.9205 45.208C24.3178 47.0853 21.1818 48.024 17.5125 48.024ZM17.5125 39.576C19.1765 39.576 20.5632 39.0213 21.6725 37.912C22.8245 36.76 23.6778 35.0533 24.2325 32.792C24.7872 30.5307 25.0645 27.7147 25.0645 24.344C25.0645 20.9733 24.7872 18.1573 24.2325 15.896C23.6778 13.592 22.8245 11.864 21.6725 10.712C20.5632 9.56 19.1765 8.984 17.5125 8.984C15.8485 8.984 14.4405 9.56 13.2885 10.712C12.1792 11.864 11.3472 13.592 10.7925 15.896C10.2378 18.1573 9.9605 20.9733 9.9605 24.344C9.9605 27.7147 10.2378 30.5307 10.7925 32.792C11.3472 35.0533 12.1792 36.76 13.2885 37.912C14.4405 39.0213 15.8485 39.576 17.5125 39.576ZM47.6955 18.2L48.5915 17.816V47H39.2475V1.56H50.6395L57.0395 30.36H54.7355L61.1355 1.56H72.5275V47H63.1835V17.816L64.0795 18.2L58.8315 41.88H52.9435L47.6955 18.2ZM80.1825 1.56H109.111V9.88H89.5265V19.992H108.343V28.312H89.5265V38.68H109.623V47H80.1825V1.56ZM117.278 1.56H126.878L138.654 27.8V1.56H147.998V47H138.398L126.622 20.76V47H117.278V1.56ZM171.013 37.208C168.581 37.208 166.533 36.3973 164.869 34.776C163.205 33.112 162.373 31.064 162.373 28.632C162.373 26.2853 163.205 24.3227 164.869 22.744C166.533 21.1227 168.581 20.312 171.013 20.312C173.487 20.312 175.535 21.1013 177.157 22.68C178.821 24.2587 179.653 26.2427 179.653 28.632C179.653 31.1067 178.821 33.1547 177.157 34.776C175.535 36.3973 173.487 37.208 171.013 37.208ZM193.772 1.56H209.003C213.953 1.56 217.814 2.79733 220.588 5.272C223.361 7.704 224.748 11.032 224.748 15.256C224.748 17.5173 224.278 19.5013 223.34 21.208C222.444 22.872 221.164 24.1947 219.5 25.176C217.836 26.1573 215.916 26.7333 213.74 26.904L213.484 26.008C217.025 26.008 219.692 26.6907 221.484 28.056C223.318 29.3787 224.364 31.5547 224.62 34.584L225.644 47H216.044L215.148 36.248C214.977 34.1147 214.444 32.664 213.548 31.896C212.694 31.128 211.222 30.744 209.132 30.744H203.116V47H193.772V1.56ZM208.492 22.424C210.454 22.424 212.012 21.848 213.164 20.696C214.316 19.544 214.892 18.0293 214.892 16.152C214.892 14.232 214.316 12.7173 213.164 11.608C212.012 10.456 210.454 9.88 208.492 9.88H203.116V22.424H208.492ZM233.683 1.56H262.611V9.88H243.027V19.992H261.843V28.312H243.027V38.68H263.123V47H233.683V1.56ZM286.522 48.024C282.81 48.024 279.61 47.0853 276.922 45.208C274.276 43.288 272.25 40.5573 270.842 37.016C269.434 33.4747 268.73 29.2507 268.73 24.344C268.73 19.4373 269.434 15.2133 270.842 11.672C272.25 8.088 274.276 5.336 276.922 3.416C279.61 1.496 282.81 0.535999 286.522 0.535999C291.3 0.535999 295.098 2.072 297.914 5.144C300.772 8.17333 302.564 12.44 303.29 17.944L293.69 18.456C293.306 15.2133 292.516 12.8027 291.322 11.224C290.17 9.64533 288.57 8.856 286.522 8.856C284.943 8.856 283.556 9.45333 282.362 10.648C281.167 11.8 280.228 13.5493 279.546 15.896C278.906 18.2 278.586 21.016 278.586 24.344C278.586 27.672 278.906 30.488 279.546 32.792C280.228 35.096 281.167 36.824 282.362 37.976C283.556 39.128 284.943 39.704 286.522 39.704C288.57 39.704 290.17 38.9147 291.322 37.336C292.474 35.7573 293.263 33.2187 293.69 29.72L303.29 30.232C302.564 35.9067 300.772 40.3013 297.914 43.416C295.098 46.488 291.3 48.024 286.522 48.024ZM324.769 48.024C321.313 48.024 318.347 47.3627 315.873 46.04C313.441 44.6747 311.542 42.776 310.177 40.344C308.854 37.8693 308.086 35.0107 307.873 31.768L317.153 31.192C317.451 32.9413 317.921 34.456 318.561 35.736C319.243 36.9733 320.118 37.9547 321.185 38.68C322.251 39.3627 323.489 39.704 324.897 39.704C326.347 39.704 327.563 39.4907 328.545 39.064C329.526 38.6373 330.273 38.04 330.785 37.272C331.297 36.4613 331.553 35.5653 331.553 34.584C331.553 33.3893 331.254 32.3867 330.657 31.576C330.102 30.7227 329.163 29.9973 327.841 29.4C326.561 28.8027 324.811 28.2693 322.593 27.8C319.478 27.16 316.897 26.264 314.849 25.112C312.801 23.96 311.243 22.488 310.177 20.696C309.153 18.904 308.641 16.7493 308.641 14.232C308.641 11.5013 309.302 9.112 310.625 7.064C311.947 4.97333 313.803 3.37333 316.193 2.264C318.625 1.112 321.441 0.535999 324.641 0.535999C327.585 0.535999 330.209 1.176 332.513 2.456C334.859 3.69333 336.737 5.44266 338.145 7.704C339.595 9.96533 340.491 12.6107 340.833 15.64L331.361 16.088C331.19 14.6373 330.806 13.3787 330.209 12.312C329.654 11.2027 328.886 10.3493 327.905 9.752C326.923 9.15467 325.793 8.856 324.513 8.856C322.507 8.856 320.95 9.304 319.841 10.2C318.774 11.0533 318.241 12.2693 318.241 13.848C318.241 14.9573 318.497 15.896 319.009 16.664C319.563 17.432 320.417 18.0933 321.569 18.648C322.721 19.16 324.257 19.608 326.177 19.992C329.718 20.7173 332.577 21.7413 334.753 23.064C336.971 24.3867 338.593 26.008 339.617 27.928C340.641 29.848 341.153 32.152 341.153 34.84C341.153 37.4 340.47 39.6827 339.104 41.688C337.782 43.6507 335.883 45.208 333.409 46.36C330.934 47.4693 328.054 48.024 324.769 48.024Z" fill="white"/>
</g>
<defs>
<filter id="filter0_i_1_2" x="0.104492" y="0.536011" width="341.048" height="51.488" filterUnits="userSpaceOnUse" color-interpolation-filters="sRGB">
<feFlood flood-opacity="0" result="BackgroundImageFix"/>
<feBlend mode="normal" in="SourceGraphic" in2="BackgroundImageFix" result="shape"/>
<feColorMatrix in="SourceAlpha" type="matrix" values="0 0 0 0 0 0 0 0 0 0 0 0 0 0 0 0 0 0 127 0" result="hardAlpha"/>
<feOffset dy="4"/>
<feGaussianBlur stdDeviation="2"/>
<feComposite in2="hardAlpha" operator="arithmetic" k2="-1" k3="1"/>
<feColorMatrix type="matrix" values="0 0 0 0 0 0 0 0 0 0 0 0 0 0 0 0 0 0 0.25 0"/>
<feBlend mode="normal" in2="shape" result="effect1_innerShadow_1_2"/>
</filter>
</defs>
</svg>
